# Blender v2.74 (sub 0) OBJ File: ''
# www.blender.org
mtllib laptop.mtl
o zone_administrable
v -2.433276 0.063245 -2.031428
v -2.433276 3.302328 0.080104
v 2.433276 3.302328 0.080104
v 2.433276 0.063245 -2.031428
vt 1.001706 0.004288
vt 1.001706 0.995712
vt -0.001706 0.004288
vt -0.001706 0.995712
vn 0.000000 0.546100 -0.837700
usemtl shader_zone_administrable
s 1
f 1/1/1 2/2/1 4/3/1
f 4/3/1 2/2/1 3/4/1
o couvercle
v -2.500000 3.289876 0.221232
v 2.500000 3.289876 0.221232
v -2.500000 -0.056412 -1.970195
v 2.500000 -0.056412 -1.970195
v -2.433276 3.300260 0.083585
v -2.476410 3.328773 0.118776
v -2.500000 3.319524 0.175960
v 2.476410 3.328773 0.118776
v 2.433276 3.300260 0.083585
v 2.500000 3.319524 0.175960
v -2.500000 -0.026765 -2.015467
v -2.476410 0.021954 -2.046802
v -2.433276 0.065610 -2.034731
v 2.500000 -0.026765 -2.015467
v 2.476410 0.021954 -2.046802
v 2.433276 0.065610 -2.034731
vt 0.053613 0.751413
vt 0.807647 0.750914
vt 0.053619 0.760543
vt 0.807652 0.760044
vt 0.053636 0.821671
vt 0.807670 0.821172
vt 0.053642 0.830801
vt 0.807675 0.830302
vt 0.022673 0.018248
vt 0.984120 0.017632
vt 0.022914 0.683324
vt 0.984361 0.682708
vt 0.469504 0.873082
vt 0.796039 0.868276
vt 0.465360 0.884938
vt 0.791894 0.880131
vt 0.382409 0.901298
vt 0.055831 0.899284
vt 0.378164 0.889479
vt 0.051587 0.887464
vt 0.049363 0.875921
vt 0.372088 0.877911
vt 0.051800 0.872924
vt 0.367483 0.874872
vt 0.067267 0.839432
vt 0.060760 0.835702
vt 0.801176 0.838946
vt 0.807679 0.835208
vt 0.057180 0.767624
vt 0.804099 0.767130
vt 0.465697 0.899475
vt 0.463234 0.896500
vt 0.781338 0.894830
vt 0.785917 0.891750
vt 0.057187 0.810903
vt 0.804106 0.810408
vt 0.063689 0.805201
vt 0.797598 0.804715
vn 0.000000 0.836600 0.547900
vn 0.001500 0.924900 0.380300
vn -0.001500 0.924900 0.380200
vn 0.001500 -0.718200 -0.695800
vn -0.001500 -0.718300 -0.695800
vn 0.000000 -0.836600 -0.547900
vn 0.000000 -0.547900 0.836600
vn 1.000000 0.000000 0.000000
vn 0.982100 0.102000 -0.158500
vn 0.982000 0.104600 -0.157000
vn -1.000000 0.000000 0.000000
vn -0.982100 0.104500 -0.156900
vn -0.982000 0.102100 -0.158600
vn -0.913300 0.223100 -0.340700
vn -0.305100 0.521700 -0.796700
vn 0.000000 0.777000 -0.629500
vn 0.000000 0.987200 0.159700
vn 0.305100 0.521700 -0.796700
vn 0.913300 0.223100 -0.340700
vn 0.000000 -0.540900 -0.841100
vn 0.000000 0.266500 -0.963800
usemtl shader_couvercle
s 1
f 5/5/2 6/6/2 11/7/3
f 11/7/3 6/6/2 14/8/4
f 15/9/5 18/10/6 7/11/7
f 7/11/7 18/10/6 8/12/7
f 7/13/8 8/14/8 5/15/8
f 5/15/8 8/14/8 6/16/8
f 6/17/9 8/18/9 14/19/10
f 14/19/10 8/18/9 18/20/11
f 7/21/12 5/22/12 15/23/13
f 15/23/13 5/22/12 11/24/14
f 11/24/14 10/25/15 15/23/13
f 15/23/13 10/25/15 16/26/15
f 10/25/16 9/27/16 16/26/16
f 16/26/16 9/27/16 17/28/16
f 9/29/17 10/30/17 13/31/17
f 13/31/17 10/30/17 12/32/17
f 10/33/18 11/7/3 12/34/18
f 12/34/18 11/7/3 14/8/4
f 13/35/19 12/36/19 20/37/19
f 20/37/19 12/36/19 19/38/19
f 12/36/20 14/19/10 19/38/20
f 19/38/20 14/19/10 18/20/11
f 15/9/5 16/39/21 18/10/6
f 18/10/6 16/39/21 19/40/21
f 16/39/22 17/41/22 19/40/22
f 19/40/22 17/41/22 20/42/22
o base
v -2.500000 -0.058561 2.000000
v 2.500000 -0.058561 2.000000
v -2.500000 -0.058561 -2.000000
v 2.500000 -0.058561 -2.000000
v -2.470572 -0.206456 1.970572
v -2.416764 -0.223695 1.916765
v -2.500000 -0.140459 2.000000
v 2.416764 -0.223695 1.916765
v 2.470572 -0.206456 1.970572
v 2.500000 -0.140459 2.000000
v -2.416764 -0.223695 -1.916765
v -2.470572 -0.206456 -1.970572
v -2.500000 -0.140459 -2.000000
v 2.470572 -0.206456 -1.970572
v 2.416764 -0.223695 -1.916765
v 2.500000 -0.140459 -2.000000
vt 0.978484 0.506756
vt 0.978484 0.001992
vt 0.986752 0.506756
vt 0.986752 0.001992
vt 0.113821 0.032961
vt 0.858011 0.032514
vt 0.114200 0.593918
vt 0.858390 0.593472
vt 0.944299 0.506756
vt 0.944299 0.001992
vt 0.952567 0.506756
vt 0.952567 0.001992
vt 0.977136 0.933475
vt 0.977136 0.529663
vt 0.985404 0.933475
vt 0.985404 0.529663
vt 0.928435 0.408802
vt 0.928435 0.004991
vt 0.936702 0.408802
vt 0.936702 0.004991
vt 0.104703 0.944288
vt 0.104703 0.670848
vt 0.397686 0.944288
vt 0.397686 0.670848
vt 0.920032 0.013394
vt 0.921772 0.007962
vt 0.920032 0.400399
vt 0.921772 0.405831
vt 0.971822 0.503785
vt 0.971822 0.004963
vt 0.970081 0.498354
vt 0.970081 0.010395
vt 0.970474 0.930504
vt 0.970474 0.532634
vt 0.968733 0.925072
vt 0.968733 0.538066
vt 0.960970 0.498354
vt 0.959229 0.503785
vt 0.960970 0.010395
vt 0.959229 0.004963
vn 0.001500 -0.188600 0.982000
vn -0.001500 -0.188500 0.982100
vn 0.000000 0.000000 1.000000
vn 0.000000 1.000000 0.000000
vn 0.000000 0.000000 -1.000000
vn 0.001500 -0.188500 -0.982100
vn -0.001500 -0.188600 -0.982000
vn 0.982000 -0.188600 -0.001500
vn 0.982100 -0.188500 0.001500
vn 1.000000 0.000000 0.000000
vn -0.982000 -0.188600 0.001500
vn -0.982100 -0.188500 -0.001500
vn -1.000000 0.000000 0.000000
vn -0.096100 -0.990800 -0.095500
vn 0.095900 -0.990800 -0.095900
vn -0.095900 -0.990800 0.095900
vn 0.095800 -0.990800 0.095800
vn -0.305100 -0.952300 0.000000
vn 0.097000 -0.918800 -0.382500
vn -0.913300 -0.407200 0.000000
vn 0.000000 -0.407200 0.913300
vn 0.000000 -0.952300 0.305100
vn 0.913300 -0.407200 0.000000
vn 0.305100 -0.952300 0.000000
vn 0.000000 -0.952300 -0.305100
vn 0.000000 -0.407200 -0.913300
usemtl shader_base
s 1
f 27/43/23 30/44/24 21/45/25
f 21/45/25 30/44/24 22/46/25
f 21/47/26 22/48/26 23/49/26
f 23/49/26 22/48/26 24/50/26
f 23/51/27 24/52/27 33/53/28
f 33/53/28 24/52/27 36/54/29
f 30/55/30 36/56/31 22/57/32
f 22/57/32 36/56/31 24/58/32
f 33/59/33 27/60/34 23/61/35
f 23/61/35 27/60/34 21/62/35
f 31/63/36 35/64/37 26/65/38
f 26/65/38 35/64/37 28/66/39
f 26/67/38 25/68/40 31/69/36
f 31/69/36 25/68/40 32/70/41
f 25/68/42 27/60/34 32/70/42
f 32/70/42 27/60/34 33/59/33
f 27/43/23 25/71/43 30/44/24
f 30/44/24 25/71/43 29/72/43
f 25/71/44 26/73/38 29/72/44
f 29/72/44 26/73/38 28/74/39
f 30/55/30 29/75/45 36/56/31
f 36/56/31 29/75/45 34/76/45
f 29/75/46 28/77/39 34/76/46
f 34/76/46 28/77/39 35/78/37
f 31/79/36 32/80/41 35/81/37
f 35/81/37 32/80/41 34/82/47
f 32/80/48 33/53/28 34/82/48
f 34/82/48 33/53/28 36/54/29
